<?xml version="1.0" encoding="utf-8"?>
<!-- Generator: Adobe Illustrator 16.0.0, SVG Export Plug-In . SVG Version: 6.00 Build 0)  -->
<!DOCTYPE svg PUBLIC "-//W3C//DTD SVG 1.1//EN" "http://www.w3.org/Graphics/SVG/1.1/DTD/svg11.dtd">
<svg version="1.1" id="Layer_1" xmlns="http://www.w3.org/2000/svg" xmlns:xlink="http://www.w3.org/1999/xlink" x="0px" y="0px"
	 width="900px" height="900px" viewBox="0 0 900 900" enable-background="new 0 0 900 900" xml:space="preserve">
<path d="M91.12,91.12h312.5v78.13H224.43l175.78,175.78l-55.18,55.18L169.25,224.43v179.19H91.12V91.12z M400.21,555.97
	L224.43,731.75h179.19v78.13H91.12v-312.5h78.13v179.19l175.78-175.78L400.21,555.97z M497.38,91.12h312.5v312.5h-78.13V224.43
	L555.97,400.21l-55.18-55.18l175.78-175.78H497.38V91.12z M731.75,676.57V497.38h78.13v312.5h-312.5v-78.13h179.19L500.79,555.97
	l55.18-55.18L731.75,676.57z"/>
</svg>
