<?xml version="1.0" encoding="utf-8"?>
<!-- Generator: Adobe Illustrator 16.0.0, SVG Export Plug-In . SVG Version: 6.00 Build 0)  -->
<!DOCTYPE svg PUBLIC "-//W3C//DTD SVG 1.1//EN" "http://www.w3.org/Graphics/SVG/1.1/DTD/svg11.dtd">
<svg version="1.1" id="Layer_1" xmlns="http://www.w3.org/2000/svg" xmlns:xlink="http://www.w3.org/1999/xlink" x="0px" y="0px"
	 width="900px" height="900px" viewBox="0 0 900 900" enable-background="new 0 0 900 900" xml:space="preserve">
<g>
	<polygon points="91.12,428.031 169.25,428.031 169.25,248.842 345.03,424.621 400.21,369.442 224.43,193.662 403.62,193.662 
		403.62,115.532 91.12,115.532 	"/>
	<polygon points="400.21,535.97 345.03,480.79 169.25,656.57 169.25,477.38 91.12,477.38 91.12,789.88 403.62,789.88 403.62,711.75 
		224.43,711.75 	"/>
	<polygon points="513.263,45.532 513.263,123.662 692.453,123.662 516.673,299.442 571.853,354.621 747.633,178.842 
		747.633,358.031 825.763,358.031 825.763,45.532 	"/>
	<polygon points="686.75,656.57 510.97,480.79 455.79,535.97 631.57,711.75 452.38,711.75 452.38,789.88 764.88,789.88 
		764.88,477.38 686.75,477.38 	"/>
</g>
</svg>
