<?xml version="1.0" encoding="utf-8"?>
<!-- Generator: Adobe Illustrator 16.0.0, SVG Export Plug-In . SVG Version: 6.00 Build 0)  -->
<!DOCTYPE svg PUBLIC "-//W3C//DTD SVG 1.1//EN" "http://www.w3.org/Graphics/SVG/1.1/DTD/svg11.dtd">
<svg version="1.1" id="Layer_1" xmlns="http://www.w3.org/2000/svg" xmlns:xlink="http://www.w3.org/1999/xlink" x="0px" y="0px"
	 width="900px" height="900px" viewBox="0 0 900 900" enable-background="new 0 0 900 900" xml:space="preserve">
<path d="M151.035,805.086l-55.66-55.17l295.41-295.41l-295.41-295.41l55.66-55.18l350.59,350.59L151.035,805.086z"/>
<path d="M396.375,454.506l350.59-350.59l55.66,55.18l-295.41,295.41l295.41,295.41l-55.66,55.17L396.375,454.506z"/>
<path d="M232.426,148.925l54.677,54.033c14.756-9.472,30.355-17.646,46.647-24.318c72.76-30.76,156.74-30.76,229.5,0
	c14.875,6.091,29.188,13.447,42.818,21.886l55.286-53.831c-21.682-15-44.774-27.59-69.305-37.875
	C546.64,89.78,498.79,80.5,448.5,80.5s-98.14,9.28-143.55,28.32C279.206,119.614,255.034,132.929,232.426,148.925z"/>
<path d="M232.426,759.076l54.677-54.033c14.756,9.472,30.355,17.646,46.647,24.318c72.76,30.76,156.74,30.76,229.5,0
	c14.875-6.092,29.188-13.447,42.818-21.886l55.286,53.831c-21.682,15-44.774,27.59-69.305,37.875
	c-45.41,19.039-93.26,28.319-143.55,28.319s-98.14-9.28-143.55-28.319C279.206,788.387,255.034,775.072,232.426,759.076z"/>
<g>
	<path d="M755.076,664.464l-54.033-54.678c9.472-14.756,17.646-30.355,24.317-46.646c30.761-72.76,30.761-156.74,0-229.5
		c-6.091-14.875-13.446-29.188-21.886-42.818l53.831-55.286c15.001,21.682,27.59,44.774,37.875,69.305
		c19.04,45.41,28.32,93.26,28.32,143.55c0,50.29-9.28,98.14-28.32,143.549C784.387,617.684,771.072,641.856,755.076,664.464z"/>
	<path d="M144.924,664.464l54.033-54.678c-9.471-14.756-17.646-30.355-24.318-46.646c-30.76-72.76-30.76-156.74,0-229.5
		c6.092-14.875,13.447-29.188,21.887-42.818l-53.832-55.286c-15,21.682-27.59,44.774-37.875,69.305
		C85.779,350.25,76.5,398.1,76.5,448.39s9.279,98.141,28.318,143.55C115.613,617.684,128.928,641.856,144.924,664.464z"/>
</g>
</svg>
