<?xml version="1.0" encoding="utf-8"?>
<!-- Generator: Adobe Illustrator 16.0.0, SVG Export Plug-In . SVG Version: 6.00 Build 0)  -->
<!DOCTYPE svg PUBLIC "-//W3C//DTD SVG 1.1//EN" "http://www.w3.org/Graphics/SVG/1.1/DTD/svg11.dtd">
<svg version="1.1" id="Layer_1" xmlns="http://www.w3.org/2000/svg" xmlns:xlink="http://www.w3.org/1999/xlink" x="0px" y="0px"
	 width="900px" height="900px" viewBox="0 0 900 900" enable-background="new 0 0 900 900" xml:space="preserve">
<path d="M857.08,36.986l31.025,420.709L452.801,893L7,447.2L441.848,12.353L857.08,36.986z M452.801,789.421l360.021-359.564
	l-23.727-323.97L470.602,87.187L110.122,447.2L452.801,789.421z M464.211,287.954l51.564,51.556L325.952,529.333l-51.565-51.565
	L464.211,287.954z M372.499,575.422l189.356-189.365l52.021,51.565L424.055,626.978L372.499,575.422z M579.648,255.097
	c0-18.25,6.393-33.763,19.166-46.538c12.775-12.774,28.297-19.166,46.547-19.166s33.764,6.392,46.537,19.166
	c12.775,12.775,19.166,28.288,19.166,46.538s-6.391,33.773-19.166,46.547c-12.773,12.774-28.287,19.166-46.537,19.166
	s-33.771-6.392-46.547-19.166C586.041,288.87,579.648,273.347,579.648,255.097z"/>
</svg>
