<?xml version="1.0" encoding="utf-8"?>
<!-- Generator: Adobe Illustrator 16.0.0, SVG Export Plug-In . SVG Version: 6.00 Build 0)  -->
<!DOCTYPE svg PUBLIC "-//W3C//DTD SVG 1.1//EN" "http://www.w3.org/Graphics/SVG/1.1/DTD/svg11.dtd">
<svg version="1.1" id="Layer_1" xmlns="http://www.w3.org/2000/svg" xmlns:xlink="http://www.w3.org/1999/xlink" x="0px" y="0px"
	 width="900px" height="900px" viewBox="0 0 900 900" enable-background="new 0 0 900 900" xml:space="preserve">
<path d="M708.873,166.877c35.214,35.214,61.802,75.618,80.102,121.538c36.6,91.146,36.593,185.057,0,276.209
	c-18.3,45.92-44.88,86.317-80.101,121.538c-35.214,35.214-75.619,61.801-121.538,80.101c-45.573,18.646-91.839,27.62-138.105,27.612
	c-46.266,0.008-92.531-8.965-138.451-27.266c-91.153-36.606-165.039-110.492-201.639-201.639
	c-18.3-45.92-27.273-92.186-27.273-138.458c0-46.259,8.974-92.525,27.273-138.445c18.646-45.573,45.233-85.977,80.448-121.191
	l5.522-5.522l55.239,55.239l-5.522,5.522c-27.62,27.62-48.677,59.737-63.18,95.637c-28.998,72.514-28.999,145.02,0,217.519
	c14.502,35.915,35.56,68.018,63.187,95.645c27.62,27.619,59.729,48.685,95.636,63.18c35.914,14.503,72.16,21.758,108.76,21.758
	c108.761,1.718,227.188-71.821,267.584-180.581c14.495-35.907,21.75-72.153,21.751-108.753
	c-0.001-36.599-7.248-72.853-21.752-108.767c-14.502-35.9-35.56-68.016-63.18-95.636l-5.522-5.523l55.239-55.239L708.873,166.877z"
	/>
<path d="M410.08,51.331h78.13v456.871h-78.13V51.331z"/>
</svg>
