<?xml version="1.0" encoding="utf-8"?>
<!-- Generator: Adobe Illustrator 16.0.0, SVG Export Plug-In . SVG Version: 6.00 Build 0)  -->
<!DOCTYPE svg PUBLIC "-//W3C//DTD SVG 1.1//EN" "http://www.w3.org/Graphics/SVG/1.1/DTD/svg11.dtd">
<svg version="1.1" id="Layer_1" xmlns="http://www.w3.org/2000/svg" xmlns:xlink="http://www.w3.org/1999/xlink" x="0px" y="0px"
	 width="900px" height="900px" viewBox="0 0 900 900" enable-background="new 0 0 900 900" xml:space="preserve">
<path d="M760.07,153.63l120.12,350.58V825.5H20.81V504.21l120.12-350.58h82.52L105.77,497.37h266.11l4.4,34.18
	c1.46,8.311,4.39,17.09,14.16,32.72c9.76,15.62,31.25,26.86,60.06,26.86c28.811,0,50.78-11.72,60.54-27.84
	c9.771-16.11,12.21-23.92,13.68-31.25v-0.49l4.391-34.18H795.22L677.55,153.63H760.07z M98.93,747.37h703.13V575.5H593.08
	c-10.26,25.88-27.35,48.34-50.79,66.41c-23.43,18.06-54.19,27.34-91.79,27.34c-37.6,0-68.36-9.28-91.8-27.34
	c-23.44-18.07-40.53-40.53-50.78-66.41H98.93V747.37z M208.31,434.87v-78.12h484.38v78.12H208.31z M645.811,216.13v78.12H255.19
	v-78.12H645.811z M598.93,75.5v78.13H302.06V75.5H598.93z"/>
</svg>
