<?xml version="1.0" encoding="utf-8"?>
<!-- Generator: Adobe Illustrator 16.0.0, SVG Export Plug-In . SVG Version: 6.00 Build 0)  -->
<!DOCTYPE svg PUBLIC "-//W3C//DTD SVG 1.1//EN" "http://www.w3.org/Graphics/SVG/1.1/DTD/svg11.dtd">
<svg version="1.1" id="Layer_1" xmlns="http://www.w3.org/2000/svg" xmlns:xlink="http://www.w3.org/1999/xlink" x="0px" y="0px"
	 width="900px" height="900px" viewBox="0 0 900 900" enable-background="new 0 0 900 900" xml:space="preserve">
<g>
	<path d="M637.731,162.233c-11.876-27.485-27.484-51.237-47.505-71.258c-39.701-40.382-97.388-65.49-157.443-65.49
		c-60.063,0-117.749,25.108-157.451,65.49c-20.014,20.021-35.622,43.773-47.499,71.258c-11.875,27.484-17.644,56.324-17.644,86.526
		c0,47.165,10.854,91.279,32.572,133.017c10.861,20.695,21.375,39.019,31.557,54.627c10.181,15.269,23.071,33.253,38.679,53.614
		c18.667,24.086,51.238,66.505,98.41,126.901l21.376,27.484l21.376-27.484l98.402-126.901c15.608-20.361,28.506-38.346,38.68-53.614
		c10.181-15.608,20.702-33.933,31.557-54.627c21.725-41.738,32.579-85.852,32.579-133.017
		C655.377,218.557,649.608,189.717,637.731,162.233z M580.387,348.183c-14.594,31.556-38.006,68.2-70.236,109.938
		c-13.913,18.658-39.701,51.918-77.367,100.438c-37.666-48.52-63.454-81.779-77.367-100.438
		c-32.238-41.738-55.65-78.382-70.577-109.938c-14.593-31.557-22.057-65.151-22.057-100.105c0-30.876,7.464-59.382,22.731-85.504
		c15.275-26.13,35.629-46.832,61.759-62.1c26.129-15.267,54.628-23.071,85.511-23.071c30.875,0,59.041,7.804,85.171,23.071
		c26.122,15.268,46.824,35.97,62.092,62.1c15.268,26.122,22.738,54.628,22.738,85.504
		C602.784,283.032,595.313,316.626,580.387,348.183z"/>
</g>
<g>
	<path d="M662.978,679.02c28.588,0,52.484-10.965,71.681-32.511c19.188-21.932,28.589-49.349,28.589-81.86
		c0-27.811-9.794-51.307-28.982-70.109c-19.195-19.195-42.699-28.588-71.287-28.588c-28.982,0-52.879,9.393-72.066,28.195
		c-18.803,18.41-28.204,41.913-28.204,70.502c0,32.512,9.401,59.929,28.589,81.86C610.492,668.055,634.389,679.02,662.978,679.02z
		 M662.584,526.266c22.324,0,39.562,10.965,39.562,37.99c0,31.34-16.452,54.441-39.562,54.441
		c-23.109,0-39.554-23.102-39.554-54.441C623.03,538.803,640.653,526.266,662.584,526.266z"/>
	<path d="M431.105,371.415c30.161,0,55.613-11.358,75.98-34.461c20.366-23.11,30.554-52.101,30.554-86.561
		c0-29.384-10.188-54.442-30.938-74.424c-20.367-19.974-45.435-30.153-75.596-30.153s-55.229,10.179-75.988,30.153
		c-20.367,19.982-30.546,45.041-30.546,74.424c0,34.46,10.179,63.45,30.546,86.561C375.484,360.057,400.944,371.415,431.105,371.415
		z M431.105,206.13c26.238,0,46.212,18.803,46.212,43.87c0,17.623-4.308,32.118-13.315,43.87
		c-8.615,11.358-19.581,17.23-32.896,17.23s-24.289-5.872-33.297-17.23c-8.616-11.752-12.923-26.247-12.923-43.87
		C384.885,224.933,404.859,206.13,431.105,206.13z"/>
	<path d="M820.826,821.588c-6.658-74.81-64.237-117.107-157.063-117.107c-10.973,0-20.366,0.394-28.596,1.564
		c12.144,18.409,20.366,38.776,24.674,60.322c1.179,0,3.529-0.393,3.922-0.393c53.264,0.785,79.51,15.665,89.297,33.289
		c8.229,12.538,9.401,19.195,9.794,27.418l3.915,52.878h58.365L820.826,821.588z"/>
	<path d="M199.226,679.02c28.597,0,52.485-10.965,71.681-32.511c19.196-21.932,28.589-49.349,28.589-81.86
		c0-28.589-9.394-52.092-28.589-70.502c-18.802-18.803-42.691-28.195-71.681-28.195c-28.982,0-52.87,9.393-72.066,28.195
		c-18.803,18.41-28.204,41.913-28.204,70.502c0,32.512,9.401,59.929,28.597,81.86C146.749,668.055,170.637,679.02,199.226,679.02z
		 M238.788,564.256c0,31.34-16.452,54.441-39.562,54.441c-23.103,0-39.554-23.102-39.554-54.441
		C156.928,513.342,241.531,513.342,238.788,564.256z"/>
	<path d="M437.37,666.876c-106.927,0-172.335,45.049-180.172,123.772l-7.051,88.911h58.365l7.043-84.604
		c4.315-43.87,47.006-66.587,121.815-66.587c74.81,0,117.5,22.717,121.816,66.193l7.042,84.997h58.366l-7.052-89.305
		C609.706,711.925,544.298,666.876,437.37,666.876z"/>
	<path d="M53.915,821.98L50,879.56h57.972l3.915-52.485c0.393-8.222,1.564-14.88,9.401-27.418
		c4.308-6.657,9.401-12.145,16.059-16.452c12.922-9.401,39.554-17.229,73.63-17.229c1.18,0,3.53,0.393,3.923,0.393
		c4.701-22.717,12.923-42.699,25.067-60.322c-8.23-1.171-18.017-1.564-28.99-1.564C117.365,704.48,60.573,747.172,53.915,821.98z"/>
</g>
</svg>
