<?xml version="1.0" encoding="utf-8"?>
<!-- Generator: Adobe Illustrator 16.0.0, SVG Export Plug-In . SVG Version: 6.00 Build 0)  -->
<!DOCTYPE svg PUBLIC "-//W3C//DTD SVG 1.1//EN" "http://www.w3.org/Graphics/SVG/1.1/DTD/svg11.dtd">
<svg version="1.1" id="Layer_1" xmlns="http://www.w3.org/2000/svg" xmlns:xlink="http://www.w3.org/1999/xlink" x="0px" y="0px"
	 width="900px" height="900px" viewBox="0 0 900 900" enable-background="new 0 0 900 900" xml:space="preserve">
<path d="M787.385,221.373c16.314,16.716,24.464,37.105,24.464,60.342c0,23.236-8.149,43.217-24.464,59.924l-78.678,78.276
	L496.705,207.513l78.276-78.276c16.716-16.715,36.696-24.874,59.933-24.874c23.237,0,43.217,8.158,59.934,24.874L787.385,221.373z
	 M741.32,295.166c6.931-6.521,6.931-20.381,0-27.312l-92.546-92.545c-7.748-7.748-19.98-7.748-27.721,0l-32.212,32.204
	l119.865,120.266L741.32,295.166z M376.439,660.047l249.508-249.508l46.063,46.072L411.499,717.123L91.463,824.757L199.497,505.13
	l260.112-260.521l46.064,46.072L256.165,540.189l-45.245,134.536l30.976,30.575L376.439,660.047z M305.502,611.127
	c-6.53-6.12-9.786-13.451-9.786-22.836c0-8.968,3.256-16.707,9.786-23.236l237.275-237.276l46.064,46.072L351.566,611.127
	C338.524,624.168,318.135,624.168,305.502,611.127z"/>
</svg>
