<?xml version="1.0" encoding="utf-8"?>
<!-- Generator: Adobe Illustrator 16.0.0, SVG Export Plug-In . SVG Version: 6.00 Build 0)  -->
<!DOCTYPE svg PUBLIC "-//W3C//DTD SVG 1.1//EN" "http://www.w3.org/Graphics/SVG/1.1/DTD/svg11.dtd">
<svg version="1.1" id="Layer_1" xmlns="http://www.w3.org/2000/svg" xmlns:xlink="http://www.w3.org/1999/xlink" x="0px" y="0px"
	 width="500px" height="500px" viewBox="0 0 500 500" enable-background="new 0 0 500 500" xml:space="preserve">
<path d="M353.438,362.152l25.294-1.084l9.395-128.274L245.578,90.426L109.896,225.93l97.382,97.378L186.139,343L69.065,225.93
	L245.578,49.414l172.357,172.357l-12.285,166.578l-50.405,3.071L353.438,362.152z M174.936,213.823l20.417-20.417l75.159,75.16
	l-20.417,20.417L174.936,213.823z M234.196,154.745l75.16,74.978l-20.599,20.414l-74.975-74.975L234.196,154.745z M295.803,301.988
	c0-7.226,2.53-13.368,7.588-18.426c5.059-5.059,11.204-7.589,18.431-7.589c7.226,0,13.369,2.53,18.427,7.589
	c5.057,5.058,7.589,11.2,7.589,18.426c0,7.227-2.532,13.368-7.589,18.432c-5.058,5.058-11.201,7.584-18.427,7.584
	c-7.227,0-13.372-2.526-18.431-7.584C298.333,315.356,295.803,309.215,295.803,301.988L295.803,301.988z M321.096,399.73
	l-49.861-49.862v117.07h-28.909v-117.07l-49.863,49.862l-20.417-20.413l84.736-84.736l84.731,84.736L321.096,399.73z"/>
</svg>
