<?xml version="1.0" encoding="utf-8"?>
<!-- Generator: Adobe Illustrator 16.0.0, SVG Export Plug-In . SVG Version: 6.00 Build 0)  -->
<!DOCTYPE svg PUBLIC "-//W3C//DTD SVG 1.1//EN" "http://www.w3.org/Graphics/SVG/1.1/DTD/svg11.dtd">
<svg version="1.1" id="Layer_1" xmlns="http://www.w3.org/2000/svg" xmlns:xlink="http://www.w3.org/1999/xlink" x="0px" y="0px"
	 width="900px" height="900px" viewBox="0 0 900 900" enable-background="new 0 0 900 900" xml:space="preserve">
<path d="M231.75,234.68c0-39.55,9.77-76.17,29.79-110.35c20.01-34.18,46.38-61.04,80.07-81.06S411.93,13,450.5,13
	c38.57,0,74.71,10.25,108.4,30.27c33.689,20.02,60.55,46.88,80.56,81.06c20.021,34.18,29.79,70.8,29.79,110.35
	c0,74.71-21,137.21-62.99,187.5c-41.5,50.29-93.75,75.19-155.76,75.19s-114.26-24.9-156.25-75.19
	C252.75,371.89,231.75,309.39,231.75,234.68L231.75,234.68z M308.41,234.19c0,53.22,13.67,97.66,40.53,133.3
	c26.85,35.65,61.03,53.22,101.56,53.22c40.53,0,74.71-17.57,101.56-53.22c26.86-35.64,40.53-80.08,40.53-133.3
	c0-38.57-14.16-72.26-42.97-101.07C521.3,104.31,488.1,89.66,450.5,89.66c-37.6,0-70.8,14.65-99.61,43.46
	C322.57,161.93,308.41,195.62,308.41,234.19L308.41,234.19z M521.79,689.76l-39.55,36.62L523.74,888H377.26l41.5-161.62
	l-39.55-36.62l71.29-112.8L521.79,689.76z M248.84,587.71l31.74-91.31c20.51,17.58,42.97,31.739,67.38,42.479l-40.53,116.7
	l-21.48,4.39c-67.87,13.19-111.33,22.46-130.37,26.86c-21.97,5.86-34.67,21.97-38.09,47.85c-1.46,11.23-4.88,62.011-11.23,153.32
	H28.62c4.4-76.66,8.31-130.86,11.72-162.6c7.33-59.08,42-101.07,96.68-114.261C163.39,604.8,200.5,596.98,248.84,587.71
	L248.84,587.71z M860.66,725.4c1.95,17.09,5.859,71.29,11.72,162.6h-78.13c-4.88-84.47-8.3-135.25-10.74-153.32
	c-3.42-25.88-16.12-41.989-38.09-47.85c-19.04-4.4-62.5-13.67-130.37-26.86l-21.479-4.39l-41.021-116.7
	c24.41-10.74,46.88-24.899,67.87-42.479l31.74,91.31c48.34,9.271,85.45,17.09,111.82,23.43
	C818.66,624.33,853.33,666.32,860.66,725.4z"/>
</svg>
